# Blender v2.80 (sub 75) OBJ File: 'linearTest_superSimpleHouse.blend'
# www.blender.org
o Cube
v 1.000000 1.500000 -1.000000
v 1.000000 0.000000 -1.000000
v 1.000000 1.500000 1.000000
v 1.000000 0.000000 1.000000
v -1.000000 1.500000 -1.000000
v -1.000000 1.500000 1.000000
v -1.000000 0.000000 1.000000
v 0.000000 2.500000 1.000000
v 0.000000 2.500000 -1.000000
v 1.000000 1.132500 -0.300000
v 1.000000 0.367500 -0.300000
v 1.000000 1.132500 0.300000
v 1.000000 0.367500 0.300000
v 0.800000 1.052576 -0.211280
v 0.800000 0.447424 -0.211280
v 0.800000 1.052576 0.211280
v 0.800000 0.447424 0.211280
v -1.000000 0.000000 -1.000000
v -1.000000 1.132500 0.300000
v -1.000000 0.367500 0.300000
v -1.000000 1.132500 -0.300000
v -1.000000 0.367500 -0.300000
v -0.800000 1.052576 0.211281
v -0.800000 0.447424 0.211281
v -0.800000 1.052576 -0.211280
v -0.800000 0.447424 -0.211280
vt 0.451199 0.322283
vt 0.231125 0.011051
vt 0.451199 0.011051
vt 0.500000 0.655616
vt 0.733424 0.344384
vt 0.733424 0.655616
vt 0.344384 0.677717
vt 0.453315 0.853953
vt 0.344384 0.911141
vt 0.473301 0.322283
vt 0.784532 0.011051
vt 0.784532 0.322283
vt 0.988949 0.344384
vt 0.812714 0.453315
vt 0.755525 0.344384
vt 0.011051 0.500000
vt 0.322283 0.733424
vt 0.011051 0.733424
vt 0.011051 0.011051
vt 0.231125 0.322283
vt 0.011051 0.322283
vt 0.322283 0.500000
vt 0.166667 0.344384
vt 0.500000 0.344384
vt 0.344384 0.500000
vt 0.806634 0.124662
vt 0.840150 0.045099
vt 0.840150 0.110856
vt 0.755525 0.655616
vt 0.931760 0.546685
vt 0.988949 0.655616
vt 0.931760 0.453315
vt 0.812714 0.546685
vt 0.934322 0.045099
vt 0.934322 0.110856
vt 0.827713 0.144904
vt 0.946759 0.144904
vt 0.967838 0.031293
vt 0.946759 0.011051
vt 0.827713 0.011051
vt 0.011051 0.775767
vt 0.044567 0.855331
vt 0.011051 0.869137
vt 0.655616 0.911141
vt 0.546685 0.734906
vt 0.655616 0.677717
vt 0.453315 0.734906
vt 0.546685 0.853953
vt 0.138738 0.789573
vt 0.138738 0.855331
vt 0.032130 0.889379
vt 0.151176 0.889379
vt 0.172255 0.869137
vt 0.172255 0.775767
vt 0.032130 0.755525
vt 0.044567 0.789573
vt 0.473301 0.011051
vt 0.806634 0.031293
vt 0.967838 0.124662
vt 0.151176 0.755525
vn -0.7173 0.2971 0.6302
vn 0.0000 0.8165 -0.5773
vn -0.7173 0.2971 -0.6302
vn 0.7173 0.2971 0.6302
vn -0.5773 -0.5773 0.5773
vn 0.5773 -0.5773 0.5773
vn -0.5773 -0.5773 -0.5773
vn -0.9637 -0.1870 0.1905
vn 0.5773 -0.5773 -0.5773
vn 0.9637 -0.1870 -0.1905
vn 0.7173 0.2971 -0.6302
vn 0.0000 0.8165 0.5773
vn 0.9637 -0.1870 0.1905
vn 0.7725 -0.4572 -0.4407
vn 0.7725 -0.4572 0.4407
vn 0.9637 0.1870 0.1905
vn 0.9637 0.1870 -0.1905
vn 0.7725 0.4572 -0.4407
vn 0.7725 0.4572 0.4407
vn -0.7725 -0.4572 -0.4407
vn -0.9637 -0.1870 -0.1905
vn -0.9637 0.1870 -0.1905
vn -0.9637 0.1870 0.1905
vn -0.7725 0.4572 0.4407
vn -0.7725 0.4572 -0.4407
vn -0.7725 -0.4572 0.4407
s 1
f 6/1/1 9/2/2 5/3/3
f 3/4/4 7/5/5 4/6/6
f 18/7/7 21/8/8 5/9/3
f 2/10/9 7/11/5 18/12/7
f 4/13/6 12/14/10 3/15/4
f 5/16/3 2/17/9 18/18/7
f 1/19/11 8/20/12 3/21/4
f 1/22/11 5/16/3 9/23/2
f 6/24/1 3/4/4 8/25/12
f 10/26/13 16/27/14 14/28/15
f 1/29/11 11/30/16 2/31/9
f 2/31/9 13/32/17 4/13/6
f 3/15/4 10/33/13 1/29/11
f 14/28/15 17/34/18 15/35/19
f 10/36/13 15/35/19 11/37/16
f 13/38/17 15/35/19 17/34/18
f 13/39/17 16/27/14 12/40/10
f 21/41/8 23/42/20 19/43/21
f 6/44/1 20/45/22 7/46/5
f 7/46/5 22/47/23 18/7/7
f 6/44/1 21/8/8 19/48/21
f 23/42/20 26/49/24 24/50/25
f 19/51/21 24/50/25 20/52/22
f 20/53/22 26/49/24 22/54/23
f 21/55/8 26/49/24 25/56/26
f 6/1/1 8/20/12 9/2/2
f 3/4/4 6/24/1 7/5/5
f 18/7/7 22/47/23 21/8/8
f 2/10/9 4/57/6 7/11/5
f 4/13/6 13/32/17 12/14/10
f 5/16/3 1/22/11 2/17/9
f 1/19/11 9/2/2 8/20/12
f 10/26/13 12/58/10 16/27/14
f 1/29/11 10/33/13 11/30/16
f 2/31/9 11/30/16 13/32/17
f 3/15/4 12/14/10 10/33/13
f 14/28/15 16/27/14 17/34/18
f 10/36/13 14/28/15 15/35/19
f 13/38/17 11/59/16 15/35/19
f 13/39/17 17/34/18 16/27/14
f 21/41/8 25/56/26 23/42/20
f 6/44/1 19/48/21 20/45/22
f 7/46/5 20/45/22 22/47/23
f 6/44/1 5/9/3 21/8/8
f 23/42/20 25/56/26 26/49/24
f 19/51/21 23/42/20 24/50/25
f 20/53/22 24/50/25 26/49/24
f 21/55/8 22/60/23 26/49/24
