# Blender v2.76 (sub 0) OBJ File: ''
# www.blender.org
o Cube
v 0.500000 -0.500000 -0.500000
v 0.500000 -0.500000 0.500000
v -0.500000 -0.500000 0.500000
v -0.500000 -0.500000 -0.500000
v 0.500000 0.500000 -0.500000
v 0.500000 0.500000 0.500000
v -0.500000 0.500000 0.500000
v -0.500000 0.500000 -0.500000
vt 0.999900 0.000100
vt 0.999900 0.999900
vt 0.000100 0.999900
vt 0.000100 0.000100
vn 0.577300 -0.577300 -0.577300
vn 0.577300 -0.577300 0.577300
vn -0.577300 -0.577300 0.577300
vn -0.577300 -0.577300 -0.577300
vn 0.577300 0.577300 -0.577300
vn -0.577300 0.577300 -0.577300
vn -0.577300 0.577300 0.577300
vn 0.577300 0.577300 0.577300
s 1
f 1/1/1 2/2/2 3/3/3 4/4/4
f 5/2/5 8/3/6 7/4/7 6/1/8
f 1/1/1 5/2/5 6/3/8 2/4/2
f 2/1/2 6/2/8 7/3/7 3/4/3
f 3/3/3 7/4/7 8/1/6 4/2/4
f 5/1/5 1/2/1 4/3/4 8/4/6
