# Blender v2.80 (sub 75) OBJ File: ''
# www.blender.org
o house1
v -1.500000 0.000000 -1.000000
v -1.500000 2.000000 -1.000000
v 1.500000 0.000000 -1.000000
v 1.500000 2.000000 -1.000000
v -1.500000 0.000000 1.000000
v -1.500000 2.000000 1.000000
v 1.500000 0.000000 1.000000
v 1.500000 2.000000 1.000000
v 1.500000 0.000000 0.000000
v 1.500000 3.000000 0.000000
v -1.500000 0.000000 -0.000000
v -1.500000 3.000000 -0.000000
v -0.000000 2.700000 0.900000
v -0.500000 2.100000 0.900000
v 0.500000 2.100000 0.900000
v -0.000000 2.700000 0.200000
v -0.500000 2.100000 0.200000
v 0.500000 2.100000 0.200000
v 0.300000 0.000000 -1.000000
v -0.300000 0.000000 -1.000000
v -0.300000 2.000000 -1.000000
v 0.300000 2.000000 -1.000000
v -0.300000 0.000000 1.000000
v 0.300000 0.000000 1.000000
v 0.300000 2.000000 1.000000
v -0.300000 2.000000 1.000000
v 0.300000 3.000000 0.000000
v -0.300000 3.000000 -0.000000
v 0.300000 0.000000 0.700000
v -0.300000 0.000000 0.700000
v -1.500000 1.000000 -1.000000
v 1.500000 1.000000 -1.000000
v 1.500000 1.000000 1.000000
v -1.500000 1.000000 1.000000
v -1.500000 1.000000 -0.000000
v 1.500000 1.000000 0.000000
v 0.300000 1.000000 1.000000
v -0.300000 1.000000 1.000000
v -0.300000 1.000000 -1.000000
v 0.300000 1.000000 -1.000000
v 0.300000 1.000000 0.700000
v -0.300000 1.000000 0.700000
vt 0.757359 0.166085
vt 0.878680 0.000000
vt 0.878680 0.166085
vt 0.171573 0.627863
vt 0.343146 0.521538
vt 0.343146 0.627863
vt 0.171573 0.166085
vt 0.343146 0.000000
vt 0.343146 0.166085
vt 0.514719 0.521538
vt 0.343146 0.627863
vt 0.343146 0.521538
vt 0.291674 0.893675
vt 0.343146 1.000000
vt 0.171573 1.000000
vt 0.757359 0.249127
vt 0.514719 0.415212
vt 0.514719 0.249127
vt 0.000000 0.166085
vt 0.171573 0.000000
vt 0.000000 0.893675
vt 0.000000 1.000000
vt 0.686292 0.627863
vt 0.686292 0.521538
vt 0.000000 0.521538
vt 0.000000 0.627863
vt 0.771216 0.415213
vt 0.771216 0.553617
vt 0.844008 0.484415
vt 0.921041 0.661714
vt 0.921041 0.553617
vt 0.789235 0.573110
vt 0.789235 0.661714
vt 0.909336 0.769811
vt 0.909336 0.661714
vt 0.686292 0.415213
vt 0.964109 0.523310
vt 0.844008 0.415213
vt 0.844008 0.523310
vt 0.171573 0.734188
vt 0.000000 0.840513
vt 0.000000 0.734188
vt 0.291674 0.840513
vt 0.000000 0.415213
vt 0.171573 0.249128
vt 0.171573 0.415213
vt 0.000000 0.249128
vt 0.514719 0.000000
vt 0.514719 0.166085
vt 0.343146 0.734188
vt 0.686292 0.553617
vt 0.789235 0.692021
vt 0.686292 0.692021
vt 0.343146 0.249128
vt 0.343146 0.415213
vt 0.757359 0.415212
vt 0.878680 0.249127
vt 0.878680 0.415212
vt 1.000000 0.166085
vt 1.000000 0.249127
vt 1.000000 0.415212
vt 0.909336 0.661714
vt 0.960808 0.768039
vt 0.909336 0.768039
vt 0.514719 0.249128
vt 0.514719 0.415213
vt 0.514719 0.415213
vt 0.686292 0.415213
vt 0.343146 0.415213
vt 0.514719 0.000000
vt 0.514719 0.166085
vt 1.000000 0.000000
vt 0.343146 0.787350
vt 0.291674 0.734188
vt 0.343146 0.734188
vt 0.343146 0.893675
vt 0.291674 0.787350
vt 0.757359 0.000000
vt 0.171573 0.415213
vt 0.514719 0.734188
vt 0.000000 0.000000
vt 0.789235 0.769811
vt 0.686292 0.553617
vt 0.964109 0.415213
vt 0.343146 0.840513
vt 0.789235 0.553617
vt 0.960808 0.661714
vn 0.0000 0.0000 -1.0000
vn 1.0000 0.0000 0.0000
vn 0.0000 0.0000 1.0000
vn -1.0000 0.0000 0.0000
vn 0.0000 -1.0000 0.0000
vn 0.0000 0.7071 -0.7071
vn -0.0000 0.7071 0.7071
vn 0.7682 0.6402 0.0000
vn -0.7682 0.6402 0.0000
s off
f 22/1/1 32/2/1 40/3/1
f 36/4/2 8/5/2 33/6/2
f 26/7/3 34/8/3 38/9/3
f 35/10/4 2/11/4 31/12/4
f 30/13/5 5/14/5 11/15/5
f 21/16/6 12/17/6 28/18/6
f 28/19/7 6/20/7 26/7/7
f 20/21/5 11/15/5 1/22/5
f 6/23/4 35/10/4 34/24/4
f 4/25/2 36/4/2 32/26/2
f 14/27/3 15/28/3 13/29/3
f 17/30/1 16/31/1 18/32/1
f 18/33/8 13/34/8 15/35/8
f 17/36/5 15/28/5 14/27/5
f 16/37/9 14/38/9 13/39/9
f 9/40/5 19/41/5 3/42/5
f 29/43/5 20/21/5 19/41/5
f 10/44/7 25/45/7 8/46/7
f 27/47/7 26/7/7 25/45/7
f 10/48/6 22/1/6 27/49/6
f 22/1/6 28/18/6 27/49/6
f 7/50/5 29/43/5 9/40/5
f 41/51/3 30/52/3 29/53/3
f 8/46/3 37/54/3 33/55/3
f 25/45/3 38/9/3 37/54/3
f 2/56/1 39/57/1 31/58/1
f 21/16/1 40/3/1 39/57/1
f 39/57/1 19/59/1 20/60/1
f 31/58/1 20/60/1 1/61/1
f 37/62/4 29/63/4 24/64/4
f 33/55/3 24/65/3 7/66/3
f 32/26/2 9/40/2 3/42/2
f 34/24/4 11/67/4 5/68/4
f 35/10/4 1/69/4 11/67/4
f 38/9/3 5/70/3 23/71/3
f 36/4/2 7/50/2 9/40/2
f 40/3/1 3/72/1 19/59/1
f 38/73/5 41/74/5 37/75/5
f 23/76/2 42/77/2 38/73/2
f 22/1/1 4/78/1 32/2/1
f 36/4/2 10/79/2 8/5/2
f 26/7/3 6/20/3 34/8/3
f 35/10/4 12/80/4 2/11/4
f 30/13/5 23/76/5 5/14/5
f 21/16/6 2/56/6 12/17/6
f 28/19/7 12/81/7 6/20/7
f 20/21/5 30/13/5 11/15/5
f 6/23/4 12/80/4 35/10/4
f 4/25/2 10/79/2 36/4/2
f 18/33/8 16/82/8 13/34/8
f 17/36/5 18/83/5 15/28/5
f 16/37/9 17/84/9 14/38/9
f 9/40/5 29/43/5 19/41/5
f 29/43/5 30/13/5 20/21/5
f 10/44/7 27/47/7 25/45/7
f 27/47/7 28/19/7 26/7/7
f 10/48/6 4/78/6 22/1/6
f 22/1/6 21/16/6 28/18/6
f 7/50/5 24/85/5 29/43/5
f 41/51/3 42/86/3 30/52/3
f 8/46/3 25/45/3 37/54/3
f 25/45/3 26/7/3 38/9/3
f 2/56/1 21/16/1 39/57/1
f 21/16/1 22/1/1 40/3/1
f 39/57/1 40/3/1 19/59/1
f 31/58/1 39/57/1 20/60/1
f 37/62/4 41/87/4 29/63/4
f 33/55/3 37/54/3 24/65/3
f 32/26/2 36/4/2 9/40/2
f 34/24/4 35/10/4 11/67/4
f 35/10/4 31/12/4 1/69/4
f 38/9/3 34/8/3 5/70/3
f 36/4/2 33/6/2 7/50/2
f 40/3/1 32/2/1 3/72/1
f 38/73/5 42/77/5 41/74/5
f 23/76/2 30/13/2 42/77/2
