# Blender v2.80 (sub 75) OBJ File: ''
# www.blender.org
o tower1
v 2.000000 0.000000 0.000000
v 1.961570 0.000000 -0.390180
v 1.847759 0.000000 -0.765367
v 1.662939 0.000000 -1.111140
v 1.414213 0.000000 -1.414213
v 1.111140 0.000000 -1.662939
v 0.765367 0.000000 -1.847759
v 0.390181 0.000000 -1.961570
v -0.000000 0.000000 -2.000000
v -0.390181 0.000000 -1.961571
v -0.765367 0.000000 -1.847759
v -1.111141 0.000000 -1.662939
v -1.414214 0.000000 -1.414214
v -1.662940 0.000000 -1.111140
v -1.847760 0.000000 -0.765366
v -1.961571 0.000000 -0.390180
v -2.000000 0.000000 0.000001
v -1.961571 0.000000 0.390181
v -1.847759 0.000000 0.765368
v -1.662939 0.000000 1.111141
v -1.414213 0.000000 1.414214
v -1.111140 0.000000 1.662940
v -0.765366 0.000000 1.847760
v -0.390179 0.000000 1.961571
v 0.000000 -0.005814 -0.046513
v 0.390182 0.000000 1.961570
v 0.765369 0.000000 1.847758
v 1.111142 0.000000 1.662938
v 1.414215 0.000000 1.414212
v 1.662940 0.000000 1.111138
v 1.847760 0.000000 0.765364
v 1.961571 0.000000 0.390178
v 1.500000 4.000000 0.000000
v 1.471178 4.000000 -0.292635
v 1.385819 4.000000 -0.574025
v 1.247204 4.000000 -0.833355
v 1.060660 4.000000 -1.060660
v 0.833355 4.000000 -1.247204
v 0.574025 4.000000 -1.385819
v 0.292635 4.000000 -1.471178
v -0.000000 4.000000 -1.500000
v -0.292635 4.000000 -1.471178
v -0.574025 4.000000 -1.385819
v -0.833355 4.000000 -1.247204
v -1.060660 4.000000 -1.060660
v -1.247205 4.000000 -0.833355
v -1.385820 4.000000 -0.574025
v -1.471178 4.000000 -0.292635
v -1.500000 4.000000 0.000001
v -1.471178 4.000000 0.292636
v -1.385819 4.000000 0.574026
v -1.247204 4.000000 0.833356
v -1.060660 4.000000 1.060661
v -0.833355 4.000000 1.247205
v -0.574024 4.000000 1.385820
v -0.292634 4.000000 1.471178
v 0.000001 4.000000 1.500000
v 0.292637 4.000000 1.471178
v 0.574026 4.000000 1.385819
v 0.833357 4.000000 1.247203
v 1.060661 4.000000 1.060659
v 1.247205 4.000000 0.833354
v 1.385820 4.000000 0.574023
v 1.471178 4.000000 0.292633
v 2.000000 4.000000 0.000000
v 1.961570 4.000000 -0.390180
v 1.847759 4.000000 -0.765367
v 1.662939 4.000000 -1.111140
v 1.414214 4.000000 -1.414213
v 1.111140 4.000000 -1.662939
v 0.765367 4.000000 -1.847759
v 0.390181 4.000000 -1.961570
v 0.000000 4.000000 -2.000000
v -0.390180 4.000000 -1.961570
v -0.765367 4.000000 -1.847759
v -1.111140 4.000000 -1.662939
v -1.414214 4.000000 -1.414214
v -1.662940 4.000000 -1.111140
v -1.847759 4.000000 -0.765366
v -1.961571 4.000000 -0.390180
v -2.000000 4.000000 0.000001
v -1.961571 4.000000 0.390182
v -1.847759 4.000000 0.765368
v -1.662939 4.000000 1.111141
v -1.414213 4.000000 1.414215
v -1.111140 4.000000 1.662940
v -0.765366 4.000000 1.847760
v -0.390179 4.000000 1.961571
v 0.000002 4.000000 2.000000
v 0.390182 4.000000 1.961570
v 0.765369 4.000000 1.847758
v 1.111142 4.000000 1.662938
v 1.414215 4.000000 1.414212
v 1.662941 4.000000 1.111138
v 1.847760 4.000000 0.765364
v 1.961571 4.000000 0.390178
v 0.000000 7.000000 -0.000000
v 1.559007 1.000000 1.041692
v 1.732275 1.000000 0.717529
v -1.875000 1.000000 0.000001
v -1.838973 1.000000 0.365795
v 1.559005 1.000000 -1.041694
v 1.325825 1.000000 -1.325825
v 1.838973 1.000000 0.365792
v -1.732274 1.000000 0.717532
v 1.041694 1.000000 -1.559005
v 1.875000 1.000000 0.000000
v -1.559005 1.000000 1.041695
v 0.717531 1.000000 -1.732274
v -1.325825 1.000000 1.325826
v 0.365794 1.000000 -1.838972
v -1.041694 1.000000 1.559006
v -0.000000 1.000000 -1.875000
v -0.717530 1.000000 1.732275
v -0.365794 1.000000 -1.838972
v -0.365793 1.000000 1.838973
v -0.717531 1.000000 -1.732274
v 0.000001 1.000000 1.875000
v -1.041694 1.000000 -1.559005
v 0.365796 1.000000 1.838972
v -1.325825 1.000000 -1.325825
v 0.717533 1.000000 1.732273
v -1.559006 1.000000 -1.041694
v 1.041696 1.000000 1.559004
v -1.732275 1.000000 -0.717531
v 1.838972 1.000000 -0.365794
v 0.365795 0.937983 1.342833
v 0.000001 0.937983 1.378861
v 1.325827 1.000000 1.325824
v -0.365794 0.937983 1.342834
v 0.390182 0.000000 1.465431
v -1.838973 1.000000 -0.365794
v -0.390180 0.000000 1.465432
v 0.000001 0.000000 1.503861
v 1.732274 1.000000 -0.717531
v 0.000000 5.000000 1.200000
v 0.000000 5.000000 1.700000
v -0.300000 4.400000 1.700000
v 0.300000 4.400000 1.700000
v -0.300000 4.400000 1.200000
v 0.300000 4.400000 1.200000
vt 0.306787 0.416440
vt 0.328885 0.340086
vt 0.305314 0.337044
vt 0.268227 0.505193
vt 0.242477 0.427628
vt 0.240760 0.507162
vt 0.499087 0.000000
vt 0.495204 0.169337
vt 0.531647 0.003254
vt 0.272443 0.421053
vt 0.272890 0.340374
vt 0.562956 0.325784
vt 0.531647 0.335421
vt 0.562956 0.012890
vt 0.499087 0.338674
vt 0.591811 0.028538
vt 0.617102 0.049598
vt 0.637858 0.075258
vt 0.653281 0.104535
vt 0.335396 0.136301
vt 0.344893 0.104535
vt 0.360316 0.075259
vt 0.381072 0.049598
vt 0.653281 0.234140
vt 0.637858 0.263416
vt 0.466527 0.335421
vt 0.435218 0.012890
vt 0.466527 0.003254
vt 0.617102 0.289077
vt 0.591811 0.310136
vt 0.435218 0.325784
vt 0.406363 0.310136
vt 0.000000 0.151923
vt 0.041524 0.180970
vt 0.041524 0.156073
vt 0.295108 0.275948
vt 0.276488 0.228391
vt 0.262855 0.249092
vt 0.006383 0.119365
vt 0.046311 0.131655
vt 0.245504 0.266697
vt 0.018904 0.088696
vt 0.055701 0.108653
vt 0.244770 0.317864
vt 0.225101 0.280529
vt 0.182453 0.000000
vt 0.153825 0.042130
vt 0.178364 0.042131
vt 0.037081 0.061095
vt 0.069334 0.087952
vt 0.214542 0.330568
vt 0.202430 0.290056
vt 0.214542 0.006476
vt 0.202430 0.046988
vt 0.060216 0.037622
vt 0.086685 0.070347
vt 0.182453 0.337044
vt 0.178364 0.294913
vt 0.225101 0.056515
vt 0.107088 0.056515
vt 0.149735 0.337044
vt 0.153825 0.294913
vt 0.245504 0.070347
vt 0.244770 0.019180
vt 0.117647 0.006476
vt 0.129759 0.046988
vt 0.117646 0.330567
vt 0.129758 0.290056
vt 0.295108 0.061096
vt 0.262855 0.087952
vt 0.107088 0.280528
vt 0.313285 0.088697
vt 0.276488 0.108653
vt 0.086685 0.266696
vt 0.087419 0.317864
vt 0.325806 0.119366
vt 0.285878 0.131655
vt 0.037080 0.275948
vt 0.069334 0.249091
vt 0.332189 0.151924
vt 0.290665 0.156074
vt 0.018903 0.248347
vt 0.055701 0.228390
vt 0.332189 0.185120
vt 0.290665 0.180970
vt 0.006383 0.217677
vt 0.046311 0.205389
vt 0.285878 0.205389
vt 0.325806 0.217678
vt 0.523015 0.691778
vt 0.546211 0.988501
vt 0.546211 0.686554
vt 0.106391 0.734715
vt 0.214022 1.000000
vt 0.135956 0.721967
vt 0.568881 0.769063
vt 0.760233 0.988501
vt 0.594849 0.753088
vt 0.496655 0.699852
vt 0.076907 0.749106
vt 0.546211 0.784920
vt 0.468145 0.710468
vt 0.048638 0.764587
vt 0.682399 0.220113
vt 0.879886 0.000000
vt 0.662778 0.206516
vt 0.438580 0.723216
vt 0.022670 0.780563
vt 0.706234 0.234101
vt 0.409096 0.737607
vt 0.000000 0.796420
vt 0.733366 0.247944
vt 0.380827 0.753088
vt 0.762753 0.261108
vt 0.354859 0.769063
vt 0.793266 0.273089
vt 0.332189 0.784920
vt 0.823732 0.283426
vt 0.737037 0.691778
vt 0.760233 0.686554
vt 0.852980 0.291720
vt 0.710678 0.699852
vt 0.879886 0.297655
vt 0.682167 0.710468
vt 0.190826 0.703277
vt 0.214022 0.698053
vt 0.652602 0.723216
vt 0.164466 0.711351
vt 0.623119 0.737607
vt 0.509895 0.341706
vt 0.533211 0.429750
vt 0.540047 0.345387
vt 0.490090 0.680079
vt 0.504944 0.426299
vt 0.590400 0.345387
vt 0.620691 0.426299
vt 0.617695 0.341706
vt 0.609207 0.682839
vt 0.595102 0.429750
vt 0.134362 0.611904
vt 0.094705 0.693163
vt 0.127268 0.696386
vt 0.155641 0.358459
vt 0.103833 0.608883
vt 0.567146 0.350340
vt 0.512704 0.682839
vt 0.558616 0.434393
vt 0.647982 0.339440
vt 0.629678 0.680079
vt 0.649085 0.424175
vt 0.074028 0.604505
vt 0.062912 0.688494
vt 0.107374 0.352540
vt 0.240760 0.608958
vt 0.217209 0.696435
vt 0.240760 0.693244
vt 0.240760 0.356103
vt 0.218681 0.611950
vt 0.680097 0.338674
vt 0.652394 0.678379
vt 0.679193 0.423457
vt 0.033112 0.682557
vt 0.046090 0.598939
vt 0.712806 0.339440
vt 0.676480 0.677805
vt 0.709858 0.424175
vt 0.006449 0.675580
vt 0.085024 0.348087
vt 0.021094 0.592399
vt 0.744852 0.341706
vt 0.701012 0.678379
vt 0.739901 0.426299
vt 0.241320 0.346853
vt 0.272443 0.421047
vt 0.272443 0.337044
vt 0.065027 0.342855
vt 0.000000 0.585135
vt 0.775004 0.345387
vt 0.725047 0.680079
vt 0.768168 0.429750
vt 0.313864 0.452024
vt 0.275449 0.421053
vt 0.272443 0.452024
vt 0.841682 0.692109
vt 0.827209 0.435725
vt 0.802103 0.441817
vt 0.802103 0.350340
vt 0.662778 0.136301
vt 0.621376 0.136301
vt 0.747661 0.682839
vt 0.793573 0.434393
vt 0.845589 0.346486
vt 0.815690 0.351888
vt 0.884192 0.683185
vt 0.855239 0.430661
vt 0.338344 0.434393
vt 0.355443 0.345387
vt 0.332189 0.350340
vt 0.356810 0.686554
vt 0.360145 0.429750
vt 0.877458 0.342388
vt 0.885117 0.426819
vt 0.382738 0.341706
vt 0.406363 0.028539
vt 0.374250 0.682839
vt 0.385734 0.426299
vt 0.910072 0.339750
vt 0.908093 0.680111
vt 0.915693 0.424346
vt 0.413025 0.339440
vt 0.394721 0.680079
vt 0.414128 0.424175
vt 0.942179 0.338674
vt 0.332189 0.169337
vt 0.932554 0.678133
vt 0.945793 0.423337
vt 0.445140 0.338674
vt 0.335396 0.202373
vt 0.417437 0.678379
vt 0.444236 0.423457
vt 0.972544 0.339202
vt 0.344893 0.234140
vt 0.956634 0.677326
vt 0.974260 0.423832
vt 0.189720 0.698053
vt 0.360316 0.263416
vt 0.223097 0.358496
vt 0.192910 0.613467
vt 0.477849 0.339440
vt 0.624583 0.169337
vt 0.441523 0.677805
vt 0.474901 0.424175
vt 1.000000 0.341314
vt 0.381072 0.289077
vt 0.979408 0.677722
vt 1.000000 0.425811
vt 0.159351 0.698037
vt 0.621376 0.202373
vt 0.202480 0.359710
vt 0.164439 0.613452
vt 0.466055 0.678379
vt 0.573301 0.434393
vt 0.567146 0.350340
vt 0.275449 0.482995
vt 0.591767 0.686554
vt 0.179703 0.359697
vt 0.662778 0.202373
vt 0.272443 0.554480
vt 0.306173 0.533796
vt 0.306173 0.590469
vt 0.306173 0.590469
vt 0.306173 0.647141
vt 0.272443 0.611152
vt 0.269012 0.619361
vt 0.240760 0.588753
vt 0.269012 0.571758
vt 0.272443 0.482995
vt 0.314168 0.533796
vt 0.272443 0.533796
vt 0.269012 0.554764
vt 0.240760 0.524156
vt 0.269012 0.507162
vt 0.328885 0.419291
vt 0.268227 0.425783
vt 0.305314 0.412637
vt 0.000000 0.185119
vt 0.313285 0.248347
vt 0.271973 0.299421
vt 0.149736 0.000000
vt 0.087420 0.019180
vt 0.271974 0.037623
vt 0.060215 0.299421
vt 0.131219 0.356042
vt 0.533028 0.686554
vt 0.240760 0.425783
vt 0.048152 0.337044
vt 0.316871 0.421053
vt 0.861767 0.687236
vt 0.767985 0.686554
vt 1.000000 0.679305
vt 0.316871 0.482995
vt 0.240761 0.636355
vt 0.314168 0.482995
vt 0.240760 0.571758
vn 0.0972 0.1315 0.9865
vn 0.0000 0.1321 0.9912
vn -0.0972 0.1315 0.9865
vn -0.0029 -1.0000 0.0000
vn 0.0000 -1.0000 0.0001
vn -0.0028 -1.0000 0.0006
vn -0.9997 -0.0252 0.0022
vn -0.9997 -0.0247 0.0009
vn -0.9997 -0.0244 0.0000
vn 0.0027 -1.0000 0.0011
vn 0.0028 -1.0000 0.0006
vn -0.0027 -1.0000 0.0011
vn 0.0029 -1.0000 0.0000
vn -0.0024 -1.0000 0.0016
vn -0.0020 -1.0000 0.0020
vn -0.0016 -1.0000 0.0024
vn 0.0000 -1.0000 0.0019
vn -0.0006 -1.0000 -0.0029
vn -0.0011 -1.0000 -0.0027
vn -0.0016 -1.0000 -0.0025
vn -0.0021 -1.0000 -0.0021
vn 0.0016 -1.0000 0.0024
vn 0.0029 -1.0000 -0.0006
vn -0.0027 -1.0000 -0.0011
vn -0.0029 -1.0000 -0.0006
vn 0.0020 -1.0000 0.0020
vn 0.0024 -1.0000 0.0016
vn 0.0027 -1.0000 -0.0011
vn 0.0025 -1.0000 -0.0016
vn 0.0000 -1.0000 -0.0000
vn 0.8161 0.5547 -0.1623
vn -0.0000 1.0000 -0.0000
vn 0.8321 0.5547 -0.0000
vn 0.5883 0.5547 0.5883
vn 0.4623 0.5547 0.6918
vn -0.8161 0.5547 -0.1623
vn -0.7687 0.5547 -0.3184
vn 0.7687 0.5547 -0.3184
vn 0.6918 0.5547 0.4623
vn -0.8321 0.5547 -0.0000
vn 0.6918 0.5547 -0.4623
vn 0.7687 0.5547 0.3184
vn -0.8161 0.5547 0.1623
vn 0.5883 0.5547 -0.5883
vn 0.8161 0.5547 0.1623
vn -0.7687 0.5547 0.3184
vn 0.4623 0.5547 -0.6918
vn -0.6918 0.5547 0.4623
vn 0.3184 0.5547 -0.7687
vn -0.5883 0.5547 0.5883
vn 0.1623 0.5547 -0.8161
vn -0.4623 0.5547 0.6918
vn 0.0000 0.5547 -0.8321
vn -0.3184 0.5547 0.7687
vn -0.1623 0.5547 -0.8161
vn -0.1623 0.5547 0.8161
vn -0.3184 0.5547 -0.7687
vn 0.0000 0.5547 0.8321
vn -0.4623 0.5547 -0.6918
vn 0.1623 0.5547 0.8161
vn -0.5883 0.5547 -0.5883
vn 0.3184 0.5547 0.7687
vn -0.6918 0.5547 -0.4623
vn 0.8250 0.1240 -0.5513
vn 0.9167 0.1240 -0.3797
vn -0.9923 0.1240 0.0000
vn -0.9732 0.1240 -0.1936
vn 0.8250 0.1240 0.5513
vn 0.7016 0.1240 0.7016
vn 0.9732 0.1240 -0.1936
vn -0.9167 0.1240 -0.3797
vn 0.5513 0.1240 0.8250
vn 0.9923 0.1240 -0.0000
vn -0.8250 0.1240 -0.5513
vn 0.3797 0.1240 0.9167
vn -0.7016 0.1240 -0.7016
vn 0.2881 0.1234 0.9496
vn 0.2257 0.1240 0.9663
vn -0.5513 0.1240 -0.8250
vn 0.9997 -0.0247 0.0009
vn 0.9997 -0.0252 0.0022
vn 0.9997 -0.0244 -0.0000
vn 0.1936 0.1240 0.9732
vn 0.0000 0.1240 0.9923
vn -0.3797 0.1240 -0.9167
vn 0.0000 -0.9923 0.1240
vn 0.0122 -0.9922 0.1240
vn -0.2257 0.1240 0.9663
vn -0.1936 0.1240 -0.9732
vn 0.0028 -1.0000 0.0039
vn -0.3797 0.1240 0.9167
vn -0.2881 0.1234 0.9496
vn 0.0000 0.1240 -0.9923
vn -0.5513 0.1240 0.8250
vn 0.1936 0.1240 -0.9732
vn -0.0025 -1.0000 -0.0016
vn -0.7016 0.1240 0.7016
vn 0.3797 0.1240 -0.9167
vn -0.8250 0.1240 0.5513
vn -0.0000 -1.0000 -0.0030
vn 0.5513 0.1240 -0.8250
vn 0.0006 -1.0000 -0.0029
vn -0.9167 0.1240 0.3797
vn 0.0011 -1.0000 -0.0027
vn 0.9732 0.1240 0.1936
vn 0.0016 -1.0000 -0.0025
vn 0.7016 0.1240 -0.7016
vn 0.0000 -1.0000 0.0038
vn -0.9732 0.1240 0.1936
vn 0.0021 -1.0000 -0.0021
vn 0.9167 0.1240 0.3797
vn -0.0028 -1.0000 0.0039
vn -0.0122 -0.9922 0.1240
vn 0.0000 0.0000 1.0000
vn 0.0000 0.0000 -1.0000
vn 0.8944 0.4472 -0.0000
vn -0.8944 0.4472 0.0000
vn -0.9997 -0.0256 0.0032
vn 0.9997 -0.0256 0.0032
vn -0.1936 0.1240 0.9732
s 1
f 127/1/1 134/2/2 131/3/1
f 134/4/2 130/5/3 133/6/3
f 17/7/4 25/8/5 18/9/6
f 120/10/7 131/3/8 26/11/9
f 31/12/10 25/8/5 32/13/11
f 18/9/6 25/8/5 19/14/12
f 32/13/11 25/8/5 1/15/13
f 19/14/12 25/8/5 20/16/14
f 20/16/14 25/8/5 21/17/15
f 21/17/15 25/8/5 22/18/16
f 22/18/16 25/8/5 23/19/17
f 10/20/18 25/8/5 11/21/19
f 12/22/20 25/8/5 13/23/21
f 27/24/17 25/8/5 28/25/22
f 1/15/13 25/8/5 2/26/23
f 15/27/24 25/8/5 16/28/25
f 29/29/26 25/8/5 30/30/27
f 3/31/28 25/8/5 4/32/29
f 90/33/30 57/34/30 58/35/30
f 77/36/30 44/37/30 45/38/30
f 91/39/30 58/35/30 59/40/30
f 46/41/30 77/36/30 45/38/30
f 92/42/30 59/40/30 60/43/30
f 79/44/30 46/41/30 47/45/30
f 66/46/30 33/47/30 34/48/30
f 93/49/30 60/43/30 61/50/30
f 80/51/30 47/45/30 48/52/30
f 67/53/30 34/48/30 35/54/30
f 94/55/30 61/50/30 62/56/30
f 81/57/30 48/52/30 49/58/30
f 36/59/30 67/53/30 35/54/30
f 63/60/30 94/55/30 62/56/30
f 82/61/30 49/58/30 50/62/30
f 37/63/30 68/64/30 36/59/30
f 96/65/30 63/60/30 64/66/30
f 83/67/30 50/62/30 51/68/30
f 70/69/30 37/63/30 38/70/30
f 33/47/30 96/65/30 64/66/30
f 52/71/30 83/67/30 51/68/30
f 71/72/30 38/70/30 39/73/30
f 53/74/30 84/75/30 52/71/30
f 72/76/30 39/73/30 40/77/30
f 86/78/30 53/74/30 54/79/30
f 73/80/30 40/77/30 41/81/30
f 87/82/30 54/79/30 55/83/30
f 74/84/30 41/81/30 42/85/30
f 88/86/30 55/83/30 56/87/30
f 43/88/30 74/84/30 42/85/30
f 57/34/30 88/86/30 56/87/30
f 44/37/30 75/89/30 43/88/30
f 66/90/31 97/91/32 65/92/33
f 93/93/34 97/94/32 92/95/35
f 80/96/36 97/97/32 79/98/37
f 67/99/38 97/91/32 66/90/31
f 94/100/39 97/94/32 93/93/34
f 81/101/40 97/97/32 80/96/36
f 68/102/41 97/91/32 67/99/38
f 95/103/42 97/94/32 94/100/39
f 82/104/43 97/105/32 81/106/40
f 69/107/44 97/91/32 68/102/41
f 96/108/45 97/94/32 95/103/42
f 83/109/46 97/105/32 82/104/43
f 70/110/47 97/91/32 69/107/44
f 65/111/33 97/94/32 96/108/45
f 84/112/48 97/105/32 83/109/46
f 71/113/49 97/91/32 70/110/47
f 85/114/50 97/105/32 84/112/48
f 72/115/51 97/91/32 71/113/49
f 86/116/52 97/105/32 85/114/50
f 73/117/53 97/91/32 72/115/51
f 87/118/54 97/105/32 86/116/52
f 74/119/55 97/97/32 73/120/53
f 88/121/56 97/105/32 87/118/54
f 75/122/57 97/97/32 74/119/55
f 89/123/58 97/105/32 88/121/56
f 76/124/59 97/97/32 75/122/57
f 90/125/60 97/94/32 89/126/58
f 77/127/61 97/97/32 76/124/59
f 91/128/62 97/94/32 90/125/60
f 78/129/63 97/97/32 77/127/61
f 92/95/35 97/94/32 91/128/62
f 79/98/37 97/97/32 78/129/63
f 4/130/64 135/131/65 3/132/65
f 36/133/64 135/131/65 102/134/64
f 17/135/66 132/136/67 16/137/67
f 49/138/66 132/136/67 100/139/66
f 98/140/68 29/141/69 30/142/68
f 62/143/68 129/144/69 98/140/68
f 135/131/65 2/145/70 3/132/65
f 35/146/65 126/147/70 135/131/65
f 132/136/67 15/148/71 16/137/67
f 48/149/67 125/150/71 132/136/67
f 29/141/69 124/151/72 28/152/72
f 129/144/69 60/153/72 124/151/72
f 126/154/70 1/155/73 2/156/70
f 34/157/70 107/158/73 126/154/70
f 125/150/71 14/159/74 15/148/71
f 47/160/71 123/161/74 125/150/71
f 124/151/72 27/162/75 28/152/72
f 60/153/72 122/163/75 124/151/72
f 123/161/74 13/164/76 14/159/74
f 46/165/74 121/166/76 123/161/74
f 122/163/75 26/167/77 27/162/75
f 59/168/75 120/169/78 122/163/75
f 121/166/76 12/170/79 13/164/76
f 45/171/76 119/172/79 121/166/76
f 133/173/80 116/174/81 24/175/82
f 58/176/83 118/177/84 120/169/78
f 119/172/79 11/178/85 12/170/79
f 44/179/79 117/180/85 119/172/79
f 128/181/86 120/182/87 118/183/86
f 57/184/84 116/185/88 118/186/84
f 117/180/85 10/187/89 11/178/85
f 24/188/30 23/19/17 133/189/90
f 43/190/85 115/191/89 117/180/85
f 116/185/88 23/192/91 24/193/92
f 16/28/25 25/8/5 17/7/4
f 116/185/88 55/194/91 114/195/91
f 115/196/89 9/197/93 10/198/89
f 2/26/23 25/8/5 3/31/28
f 42/199/89 113/200/93 115/196/89
f 114/195/91 22/201/94 23/192/91
f 28/25/22 25/8/5 29/29/26
f 55/194/91 112/202/94 114/195/91
f 113/200/93 8/203/95 9/197/93
f 14/204/96 25/8/5 15/27/24
f 41/205/93 111/206/95 113/200/93
f 112/202/94 21/207/97 22/201/94
f 13/23/21 25/8/5 14/204/96
f 54/208/94 110/209/97 112/202/94
f 111/206/95 7/210/98 8/203/95
f 11/21/19 25/8/5 12/22/20
f 40/211/95 109/212/98 111/206/95
f 110/209/97 20/213/99 21/207/97
f 9/214/100 25/8/5 10/20/18
f 53/215/97 108/216/99 110/209/97
f 109/212/98 6/217/101 7/210/98
f 8/218/102 25/8/5 9/214/100
f 39/219/98 106/220/101 109/212/98
f 108/216/99 19/221/103 20/213/99
f 7/222/104 25/8/5 8/218/102
f 52/223/99 105/224/103 108/216/99
f 107/158/73 32/225/105 1/155/73
f 6/226/106 25/8/5 7/222/104
f 33/227/73 104/228/105 107/158/73
f 106/220/101 5/229/107 6/217/101
f 133/189/90 25/8/5 134/230/108
f 38/231/101 103/232/107 106/220/101
f 105/224/103 18/233/109 19/221/103
f 5/234/110 25/8/5 6/226/106
f 51/235/103 101/236/109 105/224/103
f 104/228/105 31/237/111 32/225/105
f 134/230/108 25/8/5 131/238/112
f 64/239/105 99/240/111 104/228/105
f 5/229/107 102/134/64 4/130/64
f 4/32/29 25/8/5 5/234/110
f 37/241/107 102/134/64 103/232/107
f 101/242/109 17/135/66 18/243/109
f 116/244/113 128/181/86 118/183/86
f 50/245/109 100/139/66 101/242/109
f 99/240/111 30/142/68 31/237/111
f 30/30/27 25/8/5 31/12/10
f 63/246/111 98/140/68 99/240/111
f 25/8/5 133/189/90 23/19/17
f 25/8/5 27/24/17 131/238/112
f 26/247/30 131/238/112 27/24/17
f 138/248/114 139/249/114 137/250/114
f 140/251/115 136/252/115 141/253/115
f 139/254/116 136/255/116 137/256/116
f 138/257/30 141/258/30 139/259/30
f 137/260/117 140/261/117 138/262/117
f 127/1/1 128/263/2 134/2/2
f 134/4/2 128/264/2 130/5/3
f 120/10/7 127/265/118 131/3/8
f 90/33/30 89/266/30 57/34/30
f 77/36/30 76/267/30 44/37/30
f 91/39/30 90/33/30 58/35/30
f 46/41/30 78/268/30 77/36/30
f 92/42/30 91/39/30 59/40/30
f 79/44/30 78/268/30 46/41/30
f 66/46/30 65/269/30 33/47/30
f 93/49/30 92/42/30 60/43/30
f 80/51/30 79/44/30 47/45/30
f 67/53/30 66/46/30 34/48/30
f 94/55/30 93/49/30 61/50/30
f 81/57/30 80/51/30 48/52/30
f 36/59/30 68/64/30 67/53/30
f 63/60/30 95/270/30 94/55/30
f 82/61/30 81/57/30 49/58/30
f 37/63/30 69/271/30 68/64/30
f 96/65/30 95/270/30 63/60/30
f 83/67/30 82/61/30 50/62/30
f 70/69/30 69/271/30 37/63/30
f 33/47/30 65/269/30 96/65/30
f 52/71/30 84/75/30 83/67/30
f 71/72/30 70/69/30 38/70/30
f 53/74/30 85/272/30 84/75/30
f 72/76/30 71/72/30 39/73/30
f 86/78/30 85/272/30 53/74/30
f 73/80/30 72/76/30 40/77/30
f 87/82/30 86/78/30 54/79/30
f 74/84/30 73/80/30 41/81/30
f 88/86/30 87/82/30 55/83/30
f 43/88/30 75/89/30 74/84/30
f 57/34/30 89/266/30 88/86/30
f 44/37/30 76/267/30 75/89/30
f 4/130/64 102/134/64 135/131/65
f 36/133/64 35/146/65 135/131/65
f 17/135/66 100/139/66 132/136/67
f 49/138/66 48/149/67 132/136/67
f 98/140/68 129/144/69 29/141/69
f 62/143/68 61/273/69 129/144/69
f 135/131/65 126/147/70 2/145/70
f 35/146/65 34/274/70 126/147/70
f 132/136/67 125/150/71 15/148/71
f 48/149/67 47/160/71 125/150/71
f 29/141/69 129/144/69 124/151/72
f 129/144/69 61/273/69 60/153/72
f 126/154/70 107/158/73 1/155/73
f 34/157/70 33/227/73 107/158/73
f 125/150/71 123/161/74 14/159/74
f 47/160/71 46/165/74 123/161/74
f 124/151/72 122/163/75 27/162/75
f 60/153/72 59/168/75 122/163/75
f 123/161/74 121/166/76 13/164/76
f 46/165/74 45/171/76 121/166/76
f 122/163/75 120/169/78 26/167/77
f 59/168/75 58/176/83 120/169/78
f 121/166/76 119/172/79 12/170/79
f 45/171/76 44/179/79 119/172/79
f 133/173/80 130/275/119 116/174/81
f 58/176/83 57/276/84 118/177/84
f 119/172/79 117/180/85 11/178/85
f 44/179/79 43/190/85 117/180/85
f 128/181/86 127/277/87 120/182/87
f 57/184/84 56/278/120 116/185/88
f 117/180/85 115/191/89 10/187/89
f 43/190/85 42/279/89 115/191/89
f 116/185/88 114/195/91 23/192/91
f 116/185/88 56/278/120 55/194/91
f 115/196/89 113/200/93 9/197/93
f 42/199/89 41/205/93 113/200/93
f 114/195/91 112/202/94 22/201/94
f 55/194/91 54/208/94 112/202/94
f 113/200/93 111/206/95 8/203/95
f 41/205/93 40/211/95 111/206/95
f 112/202/94 110/209/97 21/207/97
f 54/208/94 53/215/97 110/209/97
f 111/206/95 109/212/98 7/210/98
f 40/211/95 39/219/98 109/212/98
f 110/209/97 108/216/99 20/213/99
f 53/215/97 52/223/99 108/216/99
f 109/212/98 106/220/101 6/217/101
f 39/219/98 38/231/101 106/220/101
f 108/216/99 105/224/103 19/221/103
f 52/223/99 51/235/103 105/224/103
f 107/158/73 104/228/105 32/225/105
f 33/227/73 64/239/105 104/228/105
f 106/220/101 103/232/107 5/229/107
f 38/231/101 37/241/107 103/232/107
f 105/224/103 101/236/109 18/233/109
f 51/235/103 50/280/109 101/236/109
f 104/228/105 99/240/111 31/237/111
f 64/239/105 63/246/111 99/240/111
f 5/229/107 103/232/107 102/134/64
f 37/241/107 36/133/64 102/134/64
f 101/242/109 100/139/66 17/135/66
f 116/244/113 130/281/113 128/181/86
f 50/245/109 49/138/66 100/139/66
f 99/240/111 98/140/68 30/142/68
f 63/246/111 62/143/68 98/140/68
f 139/254/116 141/282/116 136/255/116
f 138/257/30 140/283/30 141/258/30
f 137/260/117 136/284/117 140/261/117
