# Blender v2.78 (sub 0) OBJ File: 'lowestpolytanks.blend'
# www.blender.org
o apc_turret.003_Cube.011
v 0.050000 0.100000 0.400000
v 0.050000 0.100000 0.100000
v 0.035000 0.100000 0.400000
v 0.035000 0.100000 1.000000
v 0.180000 -0.000000 0.200000
v 0.180000 0.200000 -0.600000
v 0.250000 0.100000 0.300000
v 0.180000 0.200000 0.100000
v 0.180000 -0.000000 -0.500000
v 0.250000 0.100000 -0.550000
v 0.000000 0.050000 0.400000
v 0.000000 0.050000 0.100000
v -0.050000 0.100000 0.400000
v 0.000000 0.150000 0.400000
v -0.050000 0.100000 0.100000
v 0.000000 0.150000 0.100000
v 0.000000 0.065000 0.400000
v -0.035000 0.100000 0.400000
v 0.000000 0.135000 0.400000
v 0.000000 0.065000 1.000000
v -0.035000 0.100000 1.000000
v 0.000000 0.135000 1.000000
v 0.000000 0.200000 0.100000
v 0.000000 0.200000 -0.600000
v 0.000000 0.100000 0.300000
v 0.000000 -0.000000 0.200000
v 0.000000 -0.000000 -0.500000
v -0.180000 -0.000000 0.200000
v -0.180000 0.200000 -0.600000
v -0.250000 0.100000 0.300000
v -0.180000 0.200000 0.100000
v -0.180000 -0.000000 -0.500000
v 0.000000 0.100000 -0.550000
v -0.250000 0.100000 -0.550000
vn 0.7071 0.7071 0.0000
vn 0.7071 -0.7071 -0.0000
vn 0.0000 0.0000 1.0000
vn 0.0000 -0.7071 0.7071
vn 0.0000 -0.4472 -0.8944
vn 0.0000 0.8944 0.4472
vn 0.0000 1.0000 0.0000
vn 0.8192 0.5735 0.0000
vn 0.8192 -0.5735 0.0000
vn 0.0000 -1.0000 0.0000
vn -0.7071 0.7071 0.0000
vn -0.7071 -0.7071 -0.0000
vn -0.8192 0.5735 0.0000
vn -0.8192 -0.5735 0.0000
s off
f 2//1 16//1 14//1 1//1
f 12//2 2//2 1//2 11//2
f 11//3 1//3 3//3 17//3
f 1//3 14//3 19//3 3//3
f 3//1 19//1 22//1 4//1
f 17//2 3//2 4//2 20//2
f 26//4 5//4 7//4 25//4
f 33//5 24//5 6//5 10//5
f 25//6 7//6 8//6 23//6
f 27//5 33//5 10//5 9//5
f 4//3 22//3 20//3
f 24//7 23//7 8//7 6//7
f 8//8 7//8 10//8 6//8
f 7//9 5//9 9//9 10//9
f 27//10 9//10 5//10 26//10
f 15//11 13//11 14//11 16//11
f 12//12 11//12 13//12 15//12
f 11//3 17//3 18//3 13//3
f 13//3 18//3 19//3 14//3
f 18//11 21//11 22//11 19//11
f 17//12 20//12 21//12 18//12
f 26//4 25//4 30//4 28//4
f 33//5 34//5 29//5 24//5
f 25//6 23//6 31//6 30//6
f 27//5 32//5 34//5 33//5
f 21//3 20//3 22//3
f 24//7 29//7 31//7 23//7
f 31//13 29//13 34//13 30//13
f 30//14 34//14 32//14 28//14
f 27//10 26//10 28//10 32//10
