# Blender v2.78 (sub 0) OBJ File: 'lowestpolytanks.blend'
# www.blender.org
o Cube_Cube.007
v 0.300000 0.150000 -0.600000
v 0.200000 0.300000 -0.300000
v 0.200000 0.100000 0.600000
v 0.200000 0.300000 0.100000
v 0.200000 -0.000000 0.600000
v 0.200000 -0.100000 0.500000
v 0.200000 -0.100000 -0.400000
v 0.200000 -0.000000 -0.600000
v 0.300000 0.100000 0.600000
v 0.300000 0.150000 0.200000
v 0.300000 -0.000000 0.600000
v 0.300000 0.150000 -0.300000
v 0.300000 0.100000 0.500000
v 0.300000 0.100000 0.350000
v 0.300000 -0.100000 0.250000
v 0.300000 -0.100000 -0.250000
v 0.300000 0.100000 -0.350000
v 0.300000 0.100000 -0.600000
v 0.200000 0.150000 -0.600000
v 0.200000 0.100000 -0.600000
v 0.200000 -0.100000 -0.250000
v 0.200000 -0.100000 0.250000
v 0.200000 0.100000 -0.350000
v 0.200000 0.100000 0.500000
v 0.200000 0.100000 0.350000
v 0.300000 0.100000 0.200000
v 0.262500 0.131250 0.350000
v 0.262500 0.100000 0.350000
v 0.225000 0.112500 0.500000
v 0.225000 0.100000 0.500000
v 0.000000 0.150000 -0.600000
v 0.000000 0.300000 -0.300000
v 0.000000 0.100000 0.600000
v 0.000000 0.300000 0.100000
v 0.000000 0.150000 0.200000
v 0.000000 -0.000000 0.600000
v 0.000000 -0.100000 0.500000
v 0.000000 -0.100000 -0.400000
v 0.000000 -0.000000 -0.600000
v -0.300000 0.150000 -0.600000
v -0.200000 0.300000 -0.300000
v -0.200000 0.100000 0.600000
v -0.200000 0.300000 0.100000
v -0.200000 -0.000000 0.600000
v -0.200000 -0.100000 0.500000
v -0.200000 -0.100000 -0.400000
v -0.200000 -0.000000 -0.600000
v -0.300000 0.100000 0.600000
v -0.300000 0.150000 0.200000
v -0.300000 -0.000000 0.600000
v -0.300000 0.150000 -0.300000
v -0.300000 0.100000 0.500000
v -0.300000 0.100000 0.350000
v -0.300000 -0.100000 0.250000
v -0.300000 -0.100000 -0.250000
v -0.300000 0.100000 -0.350000
v -0.300000 0.100000 -0.600000
v 0.000000 0.100000 -0.600000
v -0.200000 0.150000 -0.600000
v -0.200000 0.100000 -0.600000
v 0.000000 -0.100000 -0.250000
v -0.200000 -0.100000 -0.250000
v 0.000000 -0.100000 0.250000
v -0.200000 -0.100000 0.250000
v -0.200000 0.100000 -0.350000
v -0.200000 0.100000 0.500000
v -0.200000 0.100000 0.350000
v -0.300000 0.100000 0.200000
v 0.000000 0.131250 0.350000
v 0.000000 0.112500 0.500000
v -0.262500 0.131250 0.350000
v -0.262500 0.100000 0.350000
v -0.225000 0.112500 0.500000
v -0.225000 0.100000 0.500000
vn 0.0000 -0.7071 0.7071
vn 0.0000 0.8944 -0.4472
vn 0.0000 -1.0000 0.0000
vn 0.0000 0.5547 0.8321
vn 0.0000 -0.8944 -0.4472
vn 0.0000 0.0000 1.0000
vn 0.0000 1.0000 0.0000
vn 0.8321 0.5547 0.0000
vn 1.0000 0.0000 0.0000
vn 0.0000 0.0000 -1.0000
vn 0.0000 -0.4472 -0.8944
vn 0.0000 -0.7071 -0.7071
vn -0.0000 -0.4472 0.8944
vn 0.0000 0.9923 0.1240
vn 0.9701 -0.0000 0.2425
vn -0.8321 0.5547 0.0000
vn -1.0000 0.0000 0.0000
vn -0.9701 -0.0000 0.2425
s off
f 37//1 6//1 5//1 36//1
f 32//2 2//2 1//2 19//2 31//2
f 63//3 22//3 6//3 37//3
f 35//4 10//4 4//4 34//4
f 39//5 8//5 7//5 38//5
f 36//6 5//6 3//6 33//6
f 34//7 4//7 2//7 32//7
f 3//6 5//6 11//6 9//6
f 1//8 2//8 12//8
f 2//8 4//8 10//8 12//8
f 9//9 11//9 13//9
f 18//9 1//9 12//9 17//9
f 19//10 1//10 18//10 20//10
f 31//10 19//10 20//10 58//10
f 58//10 20//10 8//10 39//10
f 38//3 7//3 21//3 61//3
f 61//3 21//3 22//3 63//3
f 15//3 22//3 21//3 16//3
f 17//11 16//11 21//11 23//11
f 17//3 23//3 20//3 18//3
f 7//9 8//9 20//9 23//9
f 21//9 7//9 23//9
f 14//3 13//3 24//3 25//3
f 5//12 24//12 13//12 11//12
f 14//13 25//13 22//13 15//13
f 22//9 25//9 24//9 6//9
f 5//9 6//9 24//9
f 12//9 10//9 26//9 17//9
f 16//9 17//9 26//9 15//9
f 15//9 26//9 14//9
f 35//14 69//14 27//14 10//14
f 29//14 27//14 69//14 70//14
f 28//7 14//7 26//7
f 10//15 27//15 28//15 26//15
f 3//14 29//14 70//14 33//14
f 9//7 13//7 30//7 3//7
f 29//15 3//15 30//15
f 30//15 28//15 27//15 29//15
f 14//7 28//7 30//7 13//7
f 37//1 36//1 44//1 45//1
f 32//2 31//2 59//2 40//2 41//2
f 63//3 37//3 45//3 64//3
f 35//4 34//4 43//4 49//4
f 39//5 38//5 46//5 47//5
f 36//6 33//6 42//6 44//6
f 34//7 32//7 41//7 43//7
f 42//6 48//6 50//6 44//6
f 40//16 51//16 41//16
f 41//16 51//16 49//16 43//16
f 48//17 52//17 50//17
f 57//17 56//17 51//17 40//17
f 59//10 60//10 57//10 40//10
f 31//10 58//10 60//10 59//10
f 58//10 39//10 47//10 60//10
f 38//3 61//3 62//3 46//3
f 61//3 63//3 64//3 62//3
f 54//3 55//3 62//3 64//3
f 56//11 65//11 62//11 55//11
f 56//3 57//3 60//3 65//3
f 46//17 65//17 60//17 47//17
f 62//17 65//17 46//17
f 53//3 67//3 66//3 52//3
f 44//12 50//12 52//12 66//12
f 53//13 54//13 64//13 67//13
f 64//17 45//17 66//17 67//17
f 44//17 66//17 45//17
f 51//17 56//17 68//17 49//17
f 55//17 54//17 68//17 56//17
f 54//17 53//17 68//17
f 35//14 49//14 71//14 69//14
f 73//14 70//14 69//14 71//14
f 72//7 68//7 53//7
f 49//18 68//18 72//18 71//18
f 42//14 33//14 70//14 73//14
f 48//7 42//7 74//7 52//7
f 73//18 74//18 42//18
f 74//18 73//18 71//18 72//18
f 53//7 52//7 74//7 72//7
