# Blender v2.78 (sub 0) OBJ File: 'lowestpolytanks.blend'
# www.blender.org
o Plane
v 0.300000 0.100000 0.800000
v 0.300000 0.200000 0.500000
v 0.300000 0.200000 -0.800000
v 0.300000 -0.100000 -0.700000
v 0.300000 -0.100000 0.600000
v 0.300000 0.100000 0.900000
v 0.500000 0.200000 0.500000
v 0.500000 0.200000 -0.800000
v 0.500000 0.100000 0.900000
v 0.300000 0.150000 -0.783333
v 0.300000 0.150000 0.500000
v 0.000000 0.100000 0.800000
v 0.000000 0.200000 0.500000
v 0.000000 0.200000 -0.800000
v 0.000000 -0.100000 -0.700000
v 0.000000 -0.100000 0.600000
v -0.300000 0.100000 0.800000
v -0.300000 0.200000 0.500000
v -0.300000 0.200000 -0.800000
v -0.300000 -0.100000 -0.700000
v -0.300000 -0.100000 0.600000
v -0.300000 0.100000 0.900000
v -0.500000 0.200000 0.500000
v -0.500000 0.200000 -0.800000
v -0.500000 0.100000 0.900000
v 0.000000 0.150000 -0.783333
v -0.300000 0.150000 -0.783333
v -0.300000 0.150000 0.500000
vn 0.0000 -1.0000 0.0000
vn 0.0000 1.0000 0.0000
vn 0.0000 -0.7071 0.7071
vn 0.2425 -0.9701 0.0000
vn 0.0000 0.9487 0.3162
vn 0.0000 0.9701 0.2425
vn -1.0000 0.0000 0.0000
vn 0.0000 -0.3162 -0.9487
vn 1.0000 0.0000 0.0000
vn 0.1204 -0.9631 -0.2408
vn 0.2394 -0.9577 -0.1596
vn -0.2425 -0.9701 0.0000
vn -0.1204 -0.9631 -0.2408
vn -0.2394 -0.9577 -0.1596
s off
f 15//1 4//1 5//1 16//1
f 13//2 2//2 3//2 14//2
f 12//3 16//3 5//3 1//3
f 11//4 10//4 8//4 7//4
f 12//5 1//5 2//5 13//5
f 2//6 6//6 9//6 7//6
f 2//2 7//2 8//2 3//2
f 2//7 1//7 6//7
f 14//8 3//8 10//8 26//8
f 11//9 5//9 4//9 10//9
f 8//8 10//8 3//8
f 26//8 10//8 4//8 15//8
f 7//10 9//10 1//10
f 6//1 1//1 9//1
f 11//11 7//11 1//11
f 5//9 11//9 1//9
f 15//1 16//1 21//1 20//1
f 13//2 14//2 19//2 18//2
f 12//3 17//3 21//3 16//3
f 28//12 23//12 24//12 27//12
f 12//5 13//5 18//5 17//5
f 18//6 23//6 25//6 22//6
f 18//2 19//2 24//2 23//2
f 18//9 22//9 17//9
f 14//8 26//8 27//8 19//8
f 28//7 27//7 20//7 21//7
f 24//8 19//8 27//8
f 26//8 15//8 20//8 27//8
f 23//13 17//13 25//13
f 22//1 25//1 17//1
f 28//14 17//14 23//14
f 21//7 17//7 28//7
