# Blender v2.78 (sub 0) OBJ File: 'boombox.blend'
# www.blender.org
o Cube.004_Cube.006
v -0.290000 -0.130000 0.060000
v -0.290000 0.120000 0.060000
v -0.290000 -0.130000 -0.060000
v -0.290000 0.120000 -0.060000
v -0.290000 0.170000 -0.060000
v -0.223000 0.160000 0.010000
v -0.223000 0.250000 0.010000
v -0.223000 0.160000 -0.010000
v -0.223000 0.250000 -0.010000
v -0.207000 0.160000 0.010000
v -0.207000 0.220000 0.010000
v -0.207000 0.160000 -0.010000
v -0.207000 0.220000 -0.010000
v -0.082299 -0.130000 -0.060000
v -0.082299 0.120000 -0.060000
v -0.082299 -0.130000 0.060000
v -0.082299 0.170000 -0.060000
v -0.290000 0.070000 -0.060000
v -0.082299 0.070000 0.060000
v -0.082299 0.070000 -0.060000
v -0.290000 0.070000 0.060000
v -0.082299 0.170000 0.040000
v -0.290000 0.170000 0.040000
v -0.256860 0.040711 0.060000
v -0.286149 -0.030000 0.060000
v -0.256860 -0.100711 0.060000
v -0.186149 -0.130000 0.060000
v -0.115439 -0.100711 0.060000
v -0.086149 -0.030000 0.060000
v -0.115439 0.040711 0.060000
v -0.186149 0.070000 0.060000
v -0.290000 -0.030000 0.060000
v -0.082299 -0.030000 0.060000
v -0.251583 0.035434 0.069590
v -0.278686 -0.030000 0.069590
v -0.251583 -0.095434 0.069590
v -0.186149 -0.122537 0.069590
v -0.120716 -0.095434 0.069590
v -0.093612 -0.030000 0.069590
v -0.120716 0.035434 0.069590
v -0.186149 0.062537 0.069590
v 0.290000 -0.130000 0.060000
v 0.290000 0.120000 0.060000
v 0.290000 -0.130000 -0.060000
v 0.290000 0.120000 -0.060000
v 0.290000 0.170000 -0.060000
v 0.000000 0.220000 -0.010000
v 0.000000 0.220000 0.010000
v 0.000000 0.250000 -0.010000
v 0.000000 0.250000 0.010000
v 0.082299 -0.130000 -0.060000
v 0.082299 0.120000 -0.060000
v 0.082299 -0.130000 0.060000
v 0.082299 0.170000 -0.060000
v 0.290000 0.070000 -0.060000
v 0.082299 0.070000 0.060000
v 0.082299 0.070000 -0.060000
v 0.000000 -0.130000 -0.060000
v 0.000000 -0.130000 0.060000
v 0.000000 0.170000 0.040000
v 0.000000 0.070000 -0.060000
v 0.290000 0.070000 0.060000
v 0.082299 0.170000 0.040000
v 0.290000 0.170000 0.040000
v 0.000000 0.120000 -0.060000
v 0.000000 0.170000 -0.060000
v 0.256860 0.040711 0.060000
v 0.286149 -0.030000 0.060000
v 0.256860 -0.100711 0.060000
v 0.186149 -0.130000 0.060000
v 0.115439 -0.100711 0.060000
v 0.086149 -0.030000 0.060000
v 0.115439 0.040711 0.060000
v 0.186149 0.070000 0.060000
v 0.290000 -0.030000 0.060000
v 0.082299 -0.030000 0.060000
v 0.251583 0.035434 0.069590
v 0.278686 -0.030000 0.069590
v 0.251583 -0.095434 0.069590
v 0.186149 -0.122537 0.069590
v 0.120716 -0.095434 0.069590
v 0.093612 -0.030000 0.069590
v 0.120716 0.035434 0.069590
v 0.186149 0.062537 0.069590
v 0.290000 0.120000 0.060000
v -0.290000 0.170000 0.040000
v 0.290000 0.170000 0.040000
v 0.082299 -0.130000 0.060000
v 0.082299 0.120000 0.060000
v -0.082299 0.120000 0.060000
v 0.082299 0.170000 0.040000
v -0.082299 0.170000 0.040000
v -0.290000 0.070000 0.060000
v 0.290000 0.070000 0.060000
v 0.082299 0.070000 0.060000
v 0.000000 0.120000 0.060000
v 0.000000 0.070000 0.060000
v -0.290000 0.120000 0.060000
v 0.000000 0.170000 0.040000
v -0.082299 0.070000 0.060000
v -0.082299 -0.130000 0.060000
v 0.000000 -0.130000 0.060000
v 0.288000 0.070000 -0.040000
v 0.312000 0.070000 -0.040000
v 0.288000 0.035359 -0.020000
v 0.312000 0.035359 -0.020000
v 0.288000 0.035359 0.020000
v 0.312000 0.035359 0.020000
v 0.288000 0.070000 0.040000
v 0.312000 0.070000 0.040000
v 0.288000 0.104641 0.020000
v 0.312000 0.104641 0.020000
v 0.288000 0.104641 -0.020000
v 0.312000 0.104641 -0.020000
v -0.063038 -0.099793 0.081616
v -0.063038 -0.085803 0.081616
v -0.063038 -0.104127 0.053697
v -0.063038 -0.081469 0.053697
v 0.063038 -0.099793 0.081616
v 0.063038 -0.085803 0.081616
v 0.063038 -0.104127 0.053697
v 0.063038 -0.081469 0.053697
v -0.106149 0.115000 0.075000
v -0.106149 0.115000 0.058000
v -0.046149 0.115000 0.058000
v -0.046149 0.115000 0.075000
v -0.033159 0.107500 0.058000
v -0.033159 0.107500 0.075000
v -0.033159 0.092500 0.058000
v -0.033159 0.092500 0.075000
v -0.046149 0.085000 0.058000
v -0.046149 0.085000 0.075000
v -0.059140 0.092500 0.058000
v -0.059140 0.092500 0.075000
v -0.059140 0.107500 0.058000
v -0.059140 0.107500 0.075000
v -0.093159 0.107500 0.058000
v -0.093159 0.107500 0.075000
v -0.093159 0.092500 0.058000
v -0.093159 0.092500 0.075000
v -0.106149 0.085000 0.058000
v -0.106149 0.085000 0.075000
v -0.119140 0.092500 0.058000
v -0.119140 0.092500 0.075000
v -0.119140 0.107500 0.058000
v -0.119140 0.107500 0.075000
v 0.064251 0.094000 0.070000
v 0.064251 0.106000 0.070000
v 0.064251 0.094000 0.058000
v 0.064251 0.106000 0.058000
v 0.083451 0.094000 0.070000
v 0.083451 0.106000 0.070000
v 0.083451 0.094000 0.058000
v 0.083451 0.106000 0.058000
v 0.223000 0.160000 0.010000
v 0.223000 0.250000 0.010000
v 0.223000 0.160000 -0.010000
v 0.223000 0.250000 -0.010000
v 0.207000 0.160000 0.010000
v 0.207000 0.220000 0.010000
v 0.207000 0.160000 -0.010000
v 0.207000 0.220000 -0.010000
v 0.000000 0.220000 -0.010000
v 0.000000 0.220000 0.010000
v 0.000000 0.250000 -0.010000
v 0.000000 0.250000 0.010000
v -0.290000 -0.130000 -0.060000
v -0.290000 -0.130000 -0.060000
v -0.290000 -0.130000 0.060000
v -0.290000 -0.130000 0.060000
v -0.290000 0.070000 -0.060000
v -0.082299 -0.130000 -0.060000
v -0.290000 0.170000 0.040000
v -0.290000 0.170000 -0.060000
v -0.290000 0.170000 -0.060000
v -0.290000 0.120000 -0.060000
v 0.000000 -0.130000 -0.060000
v -0.082299 0.170000 -0.060000
v -0.290000 -0.030000 0.060000
v -0.290000 0.070000 0.060000
v -0.082299 -0.130000 0.060000
v 0.000000 0.170000 -0.060000
v -0.186149 0.070000 0.060000
v -0.186149 0.070000 0.060000
v -0.286149 -0.030000 0.060000
v -0.256860 0.040711 0.060000
v -0.256860 -0.100711 0.060000
v -0.186149 -0.130000 0.060000
v -0.186149 -0.130000 0.060000
v -0.186149 -0.130000 0.060000
v -0.115439 -0.100711 0.060000
v -0.086149 -0.030000 0.060000
v -0.115439 0.040711 0.060000
v -0.278686 -0.030000 0.069590
v -0.251583 0.035434 0.069590
v -0.251583 -0.095434 0.069590
v -0.186149 -0.122537 0.069590
v -0.120716 -0.095434 0.069590
v -0.093612 -0.030000 0.069590
v -0.120716 0.035434 0.069590
v -0.186149 0.062537 0.069590
v 0.290000 -0.130000 -0.060000
v 0.290000 -0.130000 -0.060000
v 0.290000 -0.130000 0.060000
v 0.290000 -0.130000 0.060000
v 0.290000 0.070000 -0.060000
v 0.082299 -0.130000 -0.060000
v 0.290000 0.170000 0.040000
v 0.290000 0.170000 -0.060000
v 0.290000 0.170000 -0.060000
v 0.290000 0.120000 -0.060000
v 0.082299 0.170000 -0.060000
v 0.290000 -0.030000 0.060000
v 0.290000 0.070000 0.060000
v 0.082299 -0.130000 0.060000
v 0.186149 0.070000 0.060000
v 0.186149 0.070000 0.060000
v 0.286149 -0.030000 0.060000
v 0.256860 0.040711 0.060000
v 0.256860 -0.100711 0.060000
v 0.186149 -0.130000 0.060000
v 0.186149 -0.130000 0.060000
v 0.186149 -0.130000 0.060000
v 0.115439 -0.100711 0.060000
v 0.086149 -0.030000 0.060000
v 0.115439 0.040711 0.060000
v 0.278686 -0.030000 0.069590
v 0.251583 0.035434 0.069590
v 0.251583 -0.095434 0.069590
v 0.186149 -0.122537 0.069590
v 0.120716 -0.095434 0.069590
v 0.093612 -0.030000 0.069590
v 0.120716 0.035434 0.069590
v 0.186149 0.062537 0.069590
vt 0.4987 0.3900
vt 0.4987 0.4487
vt 0.3578 0.4487
vt 0.3578 0.3900
vt 0.1138 0.5075
vt 0.3578 0.5075
vt 0.3578 0.6249
vt 0.1138 0.6249
vt 0.4753 0.5075
vt 0.3578 0.5075
vt 0.1138 0.4487
vt 0.3578 0.4487
vt 0.3578 0.5075
vt 0.1138 0.5075
vt 0.9802 0.5195
vt 0.8676 0.5195
vt 0.8676 0.4932
vt 0.9802 0.4932
vt 0.9042 0.4722
vt 0.9802 0.4722
vt 0.7326 0.4510
vt 0.7827 0.4510
vt 0.8073 0.4722
vt 0.7326 0.4722
vt 0.8429 0.4932
vt 0.7326 0.4932
vt 0.8073 0.2217
vt 0.8429 0.2217
vt 0.8676 0.2217
vt 0.7827 0.2217
vt 0.9042 0.2217
vt 0.0171 0.4487
vt 0.0171 0.5075
vt 0.0171 0.5075
vt 0.0171 0.6249
vt 0.3578 0.1551
vt 0.1138 0.1551
vt 0.1138 0.0141
vt 0.2358 0.0141
vt 0.3578 0.0141
vt 0.3578 0.3900
vt 0.1138 0.3900
vt 0.3578 0.1551
vt 0.1138 0.1551
vt 0.4987 0.3900
vt 0.4987 0.2725
vt 0.5033 0.2725
vt 0.5377 0.3556
vt 0.4987 0.1551
vt 0.4987 0.2725
vt 0.3578 0.1551
vt 0.0171 0.3900
vt 0.0171 0.1551
vt 0.0171 0.1551
vt 0.0171 0.0141
vt 0.6207 0.3900
vt 0.7038 0.3556
vt 0.7427 0.3900
vt 0.6207 0.3900
vt 0.7382 0.2725
vt 0.7427 0.2725
vt 0.7038 0.1895
vt 0.7427 0.1551
vt 0.6207 0.1551
vt 0.6207 0.1551
vt 0.5377 0.1895
vt 0.4987 0.1551
vt 0.9594 0.7725
vt 0.8732 0.8099
vt 0.8728 0.7943
vt 0.9479 0.7620
vt 0.7841 0.5970
vt 0.8703 0.5596
vt 0.8707 0.5751
vt 0.7956 0.6075
vt 0.7866 0.7730
vt 0.7502 0.6853
vt 0.7658 0.6848
vt 0.7975 0.7618
vt 0.9933 0.6842
vt 0.9777 0.6847
vt 0.9568 0.5965
vt 0.9459 0.6077
vt 0.8728 0.7943
vt 0.7975 0.7618
vt 0.9479 0.7620
vt 0.7658 0.6848
vt 0.9777 0.6847
vt 0.8707 0.5751
vt 0.9459 0.6077
vt 0.7956 0.6075
vt 0.4987 0.3900
vt 0.3578 0.3900
vt 0.3578 0.4487
vt 0.4987 0.4487
vt 0.1138 0.5075
vt 0.1138 0.6249
vt 0.3578 0.6249
vt 0.3578 0.5075
vt 0.3578 0.5075
vt 0.4753 0.5075
vt 0.1138 0.4487
vt 0.1138 0.5075
vt 0.3578 0.5075
vt 0.3578 0.4487
vt 0.3578 0.1551
vt 0.3578 0.0141
vt 0.2358 0.0141
vt 0.1138 0.0141
vt 0.1138 0.1551
vt 0.3578 0.3900
vt 0.1138 0.3900
vt 0.3578 0.1551
vt 0.1138 0.1551
vt 0.4987 0.3900
vt 0.5377 0.3556
vt 0.5033 0.2725
vt 0.4987 0.2725
vt 0.4987 0.1551
vt 0.3578 0.1551
vt 0.4987 0.2725
vt 0.6207 0.3900
vt 0.7038 0.3556
vt 0.6207 0.3900
vt 0.7427 0.3900
vt 0.7382 0.2725
vt 0.7427 0.2725
vt 0.7427 0.1551
vt 0.7038 0.1895
vt 0.6207 0.1551
vt 0.6207 0.1551
vt 0.4987 0.1551
vt 0.5377 0.1895
vt 0.9594 0.7725
vt 0.9479 0.7620
vt 0.8728 0.7943
vt 0.8732 0.8099
vt 0.7841 0.5970
vt 0.7956 0.6075
vt 0.8707 0.5751
vt 0.8703 0.5596
vt 0.7866 0.7730
vt 0.7975 0.7618
vt 0.7658 0.6848
vt 0.7502 0.6853
vt 0.9933 0.6842
vt 0.9777 0.6847
vt 0.9459 0.6077
vt 0.9568 0.5965
vt 0.8728 0.7943
vt 0.9479 0.7620
vt 0.7975 0.7618
vt 0.7658 0.6848
vt 0.9777 0.6847
vt 0.8707 0.5751
vt 0.7956 0.6075
vt 0.9459 0.6077
vt 0.4497 0.8348
vt 0.4497 0.9069
vt 0.1504 0.9069
vt 0.1504 0.8348
vt 0.6870 0.9069
vt 0.9864 0.9069
vt 0.9864 0.9845
vt 0.6870 0.9845
vt 0.4497 0.9845
vt 0.1504 0.9845
vt 0.5684 0.9069
vt 0.5684 0.9845
vt 0.9864 0.8348
vt 0.6870 0.8348
vt 0.5684 0.8348
vt 0.5684 0.5465
vt 0.4497 0.5465
vt 0.6870 0.5465
vt 0.7193 0.0462
vt 0.7193 0.0817
vt 0.6601 0.0817
vt 0.6601 0.0462
vt 0.6008 0.0817
vt 0.6009 0.0461
vt 0.9562 0.0463
vt 0.9561 0.0818
vt 0.8969 0.0818
vt 0.8969 0.0462
vt 0.8377 0.0817
vt 0.8377 0.0462
vt 0.8969 0.1843
vt 0.8377 0.1843
vt 0.8081 0.1330
vt 0.9265 0.1331
vt 0.7785 0.0817
vt 0.7785 0.0462
vt 0.1760 0.7440
vt 0.1959 0.7471
vt 0.1959 0.7878
vt 0.1636 0.7828
vt 0.4099 0.7829
vt 0.3776 0.7879
vt 0.3776 0.7472
vt 0.3975 0.7441
vt 0.3776 0.7270
vt 0.1959 0.7269
vt 0.1959 0.6862
vt 0.3776 0.6863
vt 0.0659 0.7244
vt 0.0846 0.7352
vt 0.0846 0.7568
vt 0.0659 0.7676
vt 0.0472 0.7568
vt 0.0472 0.7352
vt 0.0367 0.9025
vt 0.0612 0.9025
vt 0.0612 0.9241
vt 0.0367 0.9241
vt 0.1091 0.8000
vt 0.0846 0.8000
vt 0.0846 0.7784
vt 0.1091 0.7784
vt 0.0612 0.9458
vt 0.0367 0.9458
vt 0.1091 0.6919
vt 0.0846 0.6919
vt 0.0846 0.6703
vt 0.1091 0.6703
vt 0.0612 0.9674
vt 0.0367 0.9674
vt 0.1091 0.7568
vt 0.1091 0.7352
vt 0.1091 0.7135
vt 0.0846 0.7135
vt 0.0367 0.8376
vt 0.0612 0.8376
vt 0.0612 0.8593
vt 0.0367 0.8593
vt 0.0799 0.9133
vt 0.0612 0.8809
vt 0.0799 0.8701
vt 0.0987 0.8809
vt 0.0987 0.9025
vt 0.0367 0.8809
vt 0.4626 0.0760
vt 0.4626 0.0933
vt 0.4453 0.0933
vt 0.4453 0.0760
vt 0.5076 0.0760
vt 0.5076 0.0933
vt 0.4903 0.0933
vt 0.4903 0.0760
vt 0.4626 0.0587
vt 0.4903 0.0587
vt 0.4903 0.1106
vt 0.4626 0.1106
vt 0.9802 0.5195
vt 0.9802 0.4932
vt 0.8676 0.4932
vt 0.8676 0.5195
vt 0.9802 0.4722
vt 0.9042 0.4722
vt 0.7326 0.4510
vt 0.7326 0.4722
vt 0.8073 0.4722
vt 0.7827 0.4510
vt 0.7326 0.4932
vt 0.8429 0.4932
vt 0.8429 0.2217
vt 0.8073 0.2217
vt 0.8676 0.2217
vt 0.7827 0.2217
vt 0.9042 0.2217
vn -1.0000 0.0000 0.0000
vn 0.0000 1.0000 0.0000
vn 0.0000 0.0000 -1.0000
vn -0.7071 0.0000 0.7071
vn -0.5773 0.5773 0.5773
vn -0.5773 0.5773 -0.5773
vn -0.7071 0.0000 -0.7071
vn 0.3015 -0.3015 -0.9045
vn 0.7071 0.0000 -0.7071
vn 0.3015 -0.3015 0.9045
vn 0.7071 0.0000 0.7071
vn 0.0000 -0.7071 0.7071
vn 0.0000 0.7071 0.7071
vn 0.0000 0.7071 -0.7071
vn 0.0000 -0.7071 -0.7071
vn 0.0000 -1.0000 0.0000
vn 0.0000 0.0000 1.0000
vn 0.5580 0.5580 0.6142
vn 0.0000 0.7892 0.6142
vn -0.5580 -0.5580 0.6142
vn 0.0000 -0.7892 0.6142
vn -0.5580 0.5580 0.6142
vn -0.7892 0.0000 0.6142
vn 0.7892 0.0000 0.6142
vn 0.5580 -0.5580 0.6142
vn 1.0000 0.0000 0.0000
vn 0.0000 0.1891 0.9819
vn 0.0000 0.3714 0.9285
vn 0.6100 0.0000 -0.7924
vn 0.6100 -0.6862 -0.3962
vn 0.0000 -0.8660 -0.5000
vn 0.6100 -0.6862 0.3962
vn 0.0000 -0.8660 0.5000
vn 0.6100 0.0000 0.7924
vn 0.6100 0.6862 0.3962
vn 0.0000 0.8660 0.5000
vn 0.6100 0.6862 -0.3962
vn 0.0000 0.8660 -0.5000
vn -0.5859 -0.5272 0.6154
vn -0.5859 0.5272 0.6154
vn -0.6698 0.7338 0.1139
vn -0.6698 -0.7338 0.1139
vn 0.6698 -0.7338 0.1139
vn 0.6698 0.7338 0.1139
vn 0.5859 0.5272 0.6154
vn 0.5859 -0.5272 0.6154
vn 0.6862 0.3962 0.6100
vn 0.0000 0.7924 0.6100
vn -0.6862 0.3962 0.6100
vn -0.6862 -0.3962 0.6100
vn 0.0000 -0.7924 0.6100
vn 0.6862 -0.3962 0.6100
vn 0.8660 0.5000 0.0000
vn -0.8660 -0.5000 0.0000
vn 0.8660 -0.5000 0.0000
vn -0.8660 0.5000 0.0000
vn -0.5773 -0.5773 0.5773
vn -0.7071 0.7071 0.0000
vn -0.7071 -0.7071 0.0000
vn 0.7071 -0.7071 0.0000
vn 0.7071 0.7071 0.0000
vn 0.5773 0.5773 0.5773
vn 0.5773 -0.5773 0.5773
vn 0.5773 0.5773 -0.5773
vn -0.3015 -0.3015 -0.9045
vn -0.3015 -0.3015 0.9045
s 1
f 21/1/1 2/2/1 176/3/1 18/4/1
f 178/5/2 174/6/2 173/7/2 22/8/2
f 176/3/1 2/2/1 23/9/1 175/10/1
f 15/11/3 4/12/3 5/13/3 17/14/3
f 6/15/4 7/16/5 9/17/6 8/18/7
f 8/18/7 9/17/6 13/19/8 12/20/9
f 12/21/9 13/22/8 11/23/10 10/24/11
f 10/24/11 11/23/10 7/25/5 6/26/4
f 7/25/5 11/23/10 48/27/12 50/28/13
f 9/17/6 7/25/5 50/28/13 49/29/14
f 11/23/10 13/22/8 47/30/15 48/27/12
f 13/19/8 9/17/6 49/29/14 47/31/15
f 65/32/3 15/11/3 17/14/3 182/33/3
f 66/34/2 178/5/2 22/8/2 60/35/2
f 167/36/16 172/37/16 181/38/16 190/39/16 169/40/16
f 171/41/3 4/12/3 15/11/3 20/42/3
f 168/43/3 171/41/3 20/42/3 14/44/3
f 180/45/17 179/46/17 185/47/17 186/48/17
f 170/49/1 32/50/1 21/1/1 18/4/1 3/51/1
f 14/44/3 20/42/3 61/52/3 177/53/3
f 20/42/3 15/11/3 65/32/3 61/52/3
f 172/37/16 58/54/16 59/55/16 181/38/16
f 183/56/17 180/45/17 186/48/17
f 193/57/17 19/58/17 184/59/17
f 192/60/17 33/61/17 19/58/17 193/57/17
f 192/60/17 191/62/17 16/63/17 33/61/17
f 191/62/17 189/64/17 16/63/17
f 188/65/17 187/66/17 1/67/17
f 185/47/17 179/46/17 1/67/17 187/66/17
f 30/68/18 31/69/19 201/70/19 200/71/18
f 26/72/20 27/73/21 197/74/21 196/75/20
f 24/76/22 25/77/23 194/78/23 195/79/22
f 29/80/24 30/68/18 200/71/18 199/81/24
f 27/73/21 28/82/25 198/83/25 197/74/21
f 31/69/19 24/76/22 195/79/22 201/70/19
f 25/77/23 26/72/20 196/75/20 194/78/23
f 28/82/25 29/80/24 199/81/24 198/83/25
f 41/84/17 34/85/17 40/86/17
f 35/87/17 39/88/17 40/86/17 34/85/17
f 37/89/17 38/90/17 36/91/17
f 36/91/17 38/90/17 39/88/17 35/87/17
f 62/92/26 55/93/26 211/94/26 43/95/26
f 212/96/2 63/97/2 208/98/2 209/99/2
f 211/94/26 210/100/26 64/101/26 43/95/26
f 52/102/3 54/103/3 46/104/3 45/105/3
f 65/32/3 182/33/3 54/103/3 52/102/3
f 66/34/2 60/35/2 63/97/2 212/96/2
f 202/106/16 204/107/16 223/108/16 215/109/16 207/110/16
f 206/111/3 57/112/3 52/102/3 45/105/3
f 203/113/3 51/114/3 57/112/3 206/111/3
f 214/115/17 219/116/17 218/117/17 213/118/17
f 205/119/26 44/120/26 55/93/26 62/92/26 75/121/26
f 51/114/3 177/53/3 61/52/3 57/112/3
f 57/112/3 61/52/3 65/32/3 52/102/3
f 207/110/16 215/109/16 59/55/16 58/54/16
f 216/122/17 219/116/17 214/115/17
f 226/123/17 217/124/17 56/125/17
f 225/126/17 226/123/17 56/125/17 76/127/17
f 225/126/17 76/127/17 53/128/17 224/129/17
f 224/129/17 53/128/17 222/130/17
f 221/131/17 42/132/17 220/133/17
f 218/117/17 220/133/17 42/132/17 213/118/17
f 73/134/22 233/135/22 234/136/19 74/137/19
f 69/138/25 229/139/25 230/140/21 70/141/21
f 67/142/18 228/143/18 227/144/24 68/145/24
f 72/146/23 232/147/23 233/135/22 73/134/22
f 70/141/21 230/140/21 231/148/20 71/149/20
f 74/137/19 234/136/19 228/143/18 67/142/18
f 68/145/24 227/144/24 229/139/25 69/138/25
f 71/149/20 231/148/20 232/147/23 72/146/23
f 84/150/17 83/151/17 77/152/17
f 78/153/17 77/152/17 83/151/17 82/154/17
f 80/155/17 79/156/17 81/157/17
f 79/156/17 78/153/17 82/154/17 81/157/17
f 100/158/17 90/159/27 98/160/27 93/161/17
f 89/162/27 85/163/27 87/164/28 91/165/28
f 98/160/27 90/159/27 92/166/28 86/167/28
f 96/168/27 89/162/27 91/165/28 99/169/28
f 94/170/17 85/163/27 89/162/27 95/171/17
f 97/172/17 96/168/27 90/159/27 100/158/17
f 102/173/17 97/172/17 100/158/17 101/174/17
f 88/175/17 95/171/17 97/172/17 102/173/17
f 95/171/17 89/162/27 96/168/27 97/172/17
f 90/159/27 96/168/27 99/169/28 92/166/28
f 103/176/3 104/177/29 106/178/30 105/179/31
f 105/179/31 106/178/30 108/180/32 107/181/33
f 107/182/33 108/183/32 110/184/34 109/185/17
f 109/185/17 110/184/34 112/186/35 111/187/36
f 106/188/30 104/189/29 114/190/37 112/186/35 110/184/34 108/191/32
f 111/187/36 112/186/35 114/192/37 113/193/38
f 113/193/38 114/192/37 104/177/29 103/176/3
f 115/194/39 116/195/40 118/196/41 117/197/42
f 121/198/43 122/199/44 120/200/45 119/201/46
f 119/202/46 120/200/45 116/195/40 115/203/39
f 117/204/42 121/205/43 119/202/46 115/203/39
f 122/199/44 118/196/41 116/195/40 120/200/45
f 138/206/47 123/207/48 146/208/49 144/209/50 142/210/51 140/211/52
f 125/212/2 126/213/48 128/214/47 127/215/53
f 141/216/16 142/217/51 144/218/50 143/219/54
f 127/215/53 128/214/47 130/220/52 129/221/55
f 139/222/55 140/223/52 142/224/51 141/225/16
f 129/221/55 130/220/52 132/226/51 131/227/16
f 145/228/56 146/208/49 123/207/48 124/229/2
f 137/230/53 138/231/47 140/223/52 139/222/55
f 131/232/16 132/233/51 134/234/50 133/235/54
f 128/236/47 126/213/48 136/237/49 134/238/50 132/239/51 130/240/52
f 124/229/2 123/207/48 138/231/47 137/230/53
f 133/235/54 134/234/50 136/237/49 135/241/56
f 143/219/54 144/218/50 146/208/49 145/228/56
f 135/241/56 136/237/49 126/213/48 125/212/2
f 147/242/57 148/243/5 150/244/58 149/245/59
f 153/246/60 154/247/61 152/248/62 151/249/63
f 151/249/63 152/248/62 148/243/5 147/242/57
f 149/250/59 153/251/60 151/249/63 147/242/57
f 154/252/61 150/253/58 148/243/5 152/248/62
f 155/254/11 157/255/9 158/256/64 156/257/62
f 157/255/9 161/258/7 162/259/65 158/256/64
f 161/260/7 159/261/4 160/262/66 162/263/65
f 159/261/4 155/264/11 156/265/62 160/262/66
f 156/265/62 166/266/13 164/267/12 160/262/66
f 158/256/64 165/268/14 166/266/13 156/265/62
f 160/262/66 164/267/12 163/269/15 162/263/65
f 162/259/65 163/270/15 165/268/14 158/256/64
